<svg width="1440" height="426" viewBox="0 0 1440 426" fill="none" xmlns="http://www.w3.org/2000/svg">
<g clip-path="url(#clip0_0_15)">
<path d="M-98.4299 880.772C-11.7792 691.848 212.373 613.861 401.864 576.578C520.325 553.205 641.066 544.425 761.465 537.356C879.241 530.401 997.018 536.216 1114.45 517.29C1182.63 506.23 1250.36 489.356 1314.66 463.93C1324.24 460.168 1333.7 456.291 1343.16 452.301C1483.74 392.556 1616 309.781 1743.35 225.979" stroke="url(#paint0_linear_0_15)" stroke-width="1.2" stroke-miterlimit="10"/>
<path d="M-94.0974 825.702C-4.82437 657.073 218.643 589.462 408.021 552.064C525.341 528.919 645.398 518.43 764.657 512.615C880.951 506.914 996.105 514.097 1111.49 501.441C1181.83 493.688 1251.72 478.752 1320.59 458.914C1389.45 439.075 1346.93 451.959 1359.81 446.828C1496.86 391.758 1623.87 309.781 1747.34 229.742" stroke="url(#paint1_linear_0_15)" stroke-width="1.2" stroke-miterlimit="10"/>
<path d="M-89.7648 770.747C2.13054 622.298 225.028 565.29 414.292 527.779C530.472 504.748 649.845 492.662 768.077 488.216C882.89 483.769 995.536 492.548 1108.75 485.935C1181.38 481.717 1254.01 470.201 1326.75 454.125C1343.28 450.476 1360.49 447.968 1376.68 441.697C1509.51 390.276 1631.85 310.123 1751.56 233.732" stroke="url(#paint2_linear_0_15)" stroke-width="1.2" stroke-miterlimit="10"/>
<path d="M-85.4323 715.677C9.08538 587.523 231.413 540.891 420.448 503.38C535.488 480.577 654.063 466.781 771.27 463.702C884.6 460.51 995.307 460.852 1105.79 470.315C1216.27 479.778 1256.4 462.22 1332.79 449.336C1352.86 445.916 1373.83 443.863 1393.44 436.566C1521.94 388.11 1639.71 310.579 1755.55 237.723" stroke="url(#paint3_linear_0_15)" stroke-width="1.2" stroke-miterlimit="10"/>
<path d="M-81.0998 660.722C16.0402 552.749 237.684 516.606 426.719 478.98C540.619 456.405 658.51 440.899 774.576 439.189C886.424 437.251 995.764 438.049 1102.94 454.809C1179.67 466.781 1259.02 454.809 1338.83 444.662C1418.64 434.514 1387.17 439.987 1410.2 431.436C1534.25 385.715 1647.58 310.921 1759.66 241.827" stroke="url(#paint4_linear_0_15)" stroke-width="1.2" stroke-miterlimit="10"/>
<path d="M-76.7673 605.652C22.9951 517.86 244.068 492.206 432.876 454.581C545.636 432.12 662.842 414.903 777.769 414.561C888.134 413.877 994.167 429.954 1099.86 439.075C1180.12 446.03 1261.42 447.626 1344.76 439.645C1372.12 437.023 1400.4 435.654 1426.85 426.077C1546.22 382.865 1655.45 311.149 1763.65 245.59" stroke="url(#paint5_linear_0_15)" stroke-width="1.1" stroke-miterlimit="10"/>
<path d="M-72.4347 550.582C29.95 483.085 250.453 467.807 439.033 430.182C550.652 407.948 667.175 389.022 780.961 390.048C889.844 390.618 993.711 409.773 1096.89 423.455C1179.78 434.514 1264.04 440.671 1350.69 434.856C1381.7 432.804 1413.63 431.55 1443.38 420.946C1558.2 380.015 1663.09 311.491 1767.41 249.695" stroke="url(#paint6_linear_0_15)" stroke-width="1.1" stroke-miterlimit="10"/>
<path d="M-68.1022 495.627C36.9048 448.31 256.838 443.521 445.303 405.782C555.783 383.663 671.507 363.14 784.381 365.535C891.783 367.473 993.597 389.934 1094.16 407.948C1179.67 423.227 1266.89 423.227 1356.85 430.182C1446.8 437.136 1427.08 427.559 1460.26 415.93C1570.39 377.278 1671.07 312.061 1771.63 253.799" stroke="url(#paint7_linear_0_15)" stroke-width="1.1" stroke-miterlimit="10"/>
<path d="M-63.8837 440.557C43.7457 413.535 262.995 419.122 451.346 381.383C560.686 359.492 675.726 337.259 787.46 341.021C893.265 344.214 993.027 370.323 1091.08 392.328C1179.21 412.167 1269.4 417.298 1362.77 425.279C1456.15 433.26 1440.3 423.227 1476.9 410.571C1582.37 374.2 1678.94 312.175 1775.51 257.676" stroke="url(#paint8_linear_0_15)" stroke-width="1.1" stroke-miterlimit="10"/>
<path d="M-59.5511 385.601C50.7005 378.76 269.38 394.837 457.617 357.097C565.816 335.434 680.172 311.491 790.766 316.508C895.089 320.954 992.685 350.941 1088.23 376.708C1178.98 401.222 1272.02 411.711 1368.82 420.49C1410.55 424.253 1453.64 419.008 1493.66 405.44C1594.45 371.235 1686.8 312.631 1779.61 261.666" stroke="url(#paint9_linear_0_15)" stroke-width="1.1" stroke-miterlimit="10"/>
<path d="M-55.2186 330.532C57.6554 343.986 275.764 370.437 463.774 332.584C570.719 311.035 684.505 285.496 793.959 291.88C896.799 297.581 992.115 331.558 1085.26 361.088C1178.41 390.504 1274.53 406.238 1374.86 415.702C1420.12 419.92 1466.87 414.789 1510.42 400.309C1606.54 368.157 1694.67 312.973 1783.72 265.771" stroke="url(#paint10_linear_0_15)" stroke-width="1.1" stroke-miterlimit="10"/>
<path d="M-50.886 275.576C64.6103 309.211 282.035 346.152 469.93 308.299C575.736 286.978 688.723 259.728 797.151 267.481C898.509 274.436 991.431 312.631 1082.19 345.582C1177.73 380.243 1276.81 401.108 1380.68 410.913C1429.47 415.588 1479.98 410.571 1526.96 395.065C1618.39 365.079 1702.31 313.315 1787.48 269.647" stroke="url(#paint11_linear_0_15)" stroke-width="1.1" stroke-miterlimit="10"/>
<path d="M-46.5535 220.507C71.5651 274.436 288.42 321.753 476.201 283.899C580.866 262.806 693.17 233.732 800.571 242.968C900.448 251.177 990.861 293.705 1079.45 329.962C1177.27 369.981 1278.97 401.222 1386.83 406.124C1439.51 408.519 1493.32 406.124 1543.83 389.934C1630.48 362 1710.4 313.657 1791.7 273.752" stroke="url(#paint12_linear_0_15)" stroke-width="1.1" stroke-miterlimit="10"/>
<path d="M-42.2209 165.437C78.52 239.547 294.805 297.467 482.358 259.386C585.883 238.407 697.503 207.737 803.764 218.226C902.158 227.69 989.835 274.664 1076.49 314.228C1176.36 359.72 1281.25 394.609 1392.87 401.222C1449.08 404.528 1506.66 401.678 1560.59 384.689C1642.57 358.808 1718.27 313.999 1795.8 277.628" stroke="url(#paint13_linear_0_15)" stroke-width="1.1" stroke-miterlimit="10"/>
<path d="M-37.8884 110.481C85.4748 204.886 301.076 273.182 488.629 235.101C591.013 214.35 701.835 181.969 807.07 193.827C903.982 204.544 988.923 256.079 1073.64 298.721C1175.34 350.028 1283.76 388.338 1398.92 396.433C1458.66 400.651 1519.89 397.231 1577.35 379.445C1654.65 355.615 1726.14 314.227 1799.79 281.505" stroke="url(#paint14_linear_0_15)" stroke-width="1.1" stroke-miterlimit="10"/>
<path d="M-33.5559 55.4117C92.4297 169.998 307.46 248.782 494.785 210.701C596.03 190.178 706.168 156.088 810.263 169.313C905.692 181.285 987.783 237.267 1070.67 283.101C1174.08 340.223 1286.04 381.839 1404.96 391.644C1468.35 396.889 1533.11 392.67 1594.11 374.314C1666.62 352.423 1734 314.57 1803.9 285.61" stroke="url(#paint15_linear_0_15)" stroke-width="1.1" stroke-miterlimit="10"/>
<path d="M-29.2234 0.456062C99.3845 135.223 313.845 224.497 501.056 186.302C601.161 165.893 710.614 130.206 813.569 144.8C907.516 158.026 986.528 218.568 1067.71 267.595C1172.6 330.76 1288.32 375.568 1410.89 386.97C1477.82 393.126 1546.11 388.11 1610.76 369.297C1678.59 349.458 1741.87 315.14 1807.77 289.714" stroke="url(#paint16_linear_0_15)" stroke-width="1.1" stroke-miterlimit="10"/>
</g>
<defs>
<linearGradient id="paint0_linear_0_15" x1="-120.923" y1="803.259" x2="1756.6" y2="271.982" gradientUnits="userSpaceOnUse">
<stop stop-color="#F7941D" stop-opacity="0"/>
<stop offset="1" stop-color="#EC6C21"/>
</linearGradient>
<linearGradient id="paint1_linear_0_15" x1="-111.887" y1="758.668" x2="1772.88" y2="281.756" gradientUnits="userSpaceOnUse">
<stop stop-color="#F6921D" stop-opacity="0"/>
<stop offset="1" stop-color="#ED6E21" stop-opacity="0.9"/>
</linearGradient>
<linearGradient id="paint2_linear_0_15" x1="-103.068" y1="713.881" x2="1787.27" y2="291.346" gradientUnits="userSpaceOnUse">
<stop stop-color="#F68F1D" stop-opacity="0.1"/>
<stop offset="1" stop-color="#ED7121" stop-opacity="0.9"/>
</linearGradient>
<linearGradient id="paint3_linear_0_15" x1="-95.2709" y1="668.78" x2="1799.83" y2="303.846" gradientUnits="userSpaceOnUse">
<stop stop-color="#F58D1E" stop-opacity="0.2"/>
<stop offset="1" stop-color="#EE7420" stop-opacity="0.8"/>
</linearGradient>
<linearGradient id="paint4_linear_0_15" x1="-87.7308" y1="620.697" x2="1809.96" y2="309.943" gradientUnits="userSpaceOnUse">
<stop stop-color="#F48A1E" stop-opacity="0.2"/>
<stop offset="1" stop-color="#EF7620" stop-opacity="0.8"/>
</linearGradient>
<linearGradient id="paint5_linear_0_15" x1="-81.2423" y1="572.377" x2="1818.05" y2="318.962" gradientUnits="userSpaceOnUse">
<stop stop-color="#F4881E" stop-opacity="0.3"/>
<stop offset="1" stop-color="#EF7920" stop-opacity="0.7"/>
</linearGradient>
<linearGradient id="paint6_linear_0_15" x1="-75.1511" y1="523.51" x2="1824.13" y2="327.242" gradientUnits="userSpaceOnUse">
<stop stop-color="#F3851F" stop-opacity="0.4"/>
<stop offset="1" stop-color="#F07B20" stop-opacity="0.6"/>
</linearGradient>
<linearGradient id="paint7_linear_0_15" x1="-68.5091" y1="475.355" x2="1829.03" y2="332.681" gradientUnits="userSpaceOnUse">
<stop stop-color="#F2831F" stop-opacity="0.4"/>
<stop offset="1" stop-color="#F17E1F" stop-opacity="0.6"/>
</linearGradient>
<linearGradient id="paint8_linear_0_15" x1="-63.2416" y1="426.056" x2="1831.43" y2="340.021" gradientUnits="userSpaceOnUse">
<stop stop-color="#F2801F" stop-opacity="0.5"/>
<stop offset="1" stop-color="#F2801F" stop-opacity="0.5"/>
</linearGradient>
<linearGradient id="paint9_linear_0_15" x1="-58.2509" y1="376.51" x2="1832.1" y2="346.814" gradientUnits="userSpaceOnUse">
<stop stop-color="#F17E1F" stop-opacity="0.6"/>
<stop offset="1" stop-color="#F2831F" stop-opacity="0.4"/>
</linearGradient>
<linearGradient id="paint10_linear_0_15" x1="-53.7539" y1="326.858" x2="1831.17" y2="353.178" gradientUnits="userSpaceOnUse">
<stop stop-color="#F07B20" stop-opacity="0.6"/>
<stop offset="1" stop-color="#F3851F" stop-opacity="0.4"/>
</linearGradient>
<linearGradient id="paint11_linear_0_15" x1="-49.8622" y1="277.221" x2="1828.33" y2="359.223" gradientUnits="userSpaceOnUse">
<stop stop-color="#EF7920" stop-opacity="0.7"/>
<stop offset="1" stop-color="#F4881E" stop-opacity="0.3"/>
</linearGradient>
<linearGradient id="paint12_linear_0_15" x1="-45.8419" y1="227.32" x2="1824.44" y2="361.381" gradientUnits="userSpaceOnUse">
<stop stop-color="#EF7620" stop-opacity="0.8"/>
<stop offset="1" stop-color="#F48A1E" stop-opacity="0.2"/>
</linearGradient>
<linearGradient id="paint13_linear_0_15" x1="-42.8104" y1="178.01" x2="1818.24" y2="367.046" gradientUnits="userSpaceOnUse">
<stop stop-color="#EE7420" stop-opacity="0.8"/>
<stop offset="1" stop-color="#F58D1E" stop-opacity="0.2"/>
</linearGradient>
<linearGradient id="paint14_linear_0_15" x1="-39.7656" y1="128.387" x2="1811.21" y2="368.784" gradientUnits="userSpaceOnUse">
<stop stop-color="#ED7121" stop-opacity="0.9"/>
<stop offset="1" stop-color="#F68F1D" stop-opacity="0.1"/>
</linearGradient>
<linearGradient id="paint15_linear_0_15" x1="-37.5732" y1="79.1544" x2="1801.86" y2="373.779" gradientUnits="userSpaceOnUse">
<stop stop-color="#ED6E21" stop-opacity="0.9"/>
<stop offset="1" stop-color="#F6921D" stop-opacity="0"/>
</linearGradient>
<linearGradient id="paint16_linear_0_15" x1="-35.5469" y1="31.2653" x2="1791.69" y2="376.521" gradientUnits="userSpaceOnUse">
<stop stop-color="#EC6C21"/>
<stop offset="1" stop-color="#F7941D" stop-opacity="0"/>
</linearGradient>
<clipPath id="clip0_0_15">
<rect width="1907" height="881" fill="white" transform="translate(-99)"/>
</clipPath>
</defs>
</svg>
