<svg width="90" height="39" viewBox="0 0 90 39" fill="none" xmlns="http://www.w3.org/2000/svg">
<path fill-rule="evenodd" clip-rule="evenodd" d="M3.42773 3.79202C2.26934 3.79202 1.13379 3.79202 0 3.79202C0 9.53831 0 15.2864 0 21.0326C3.35391 21.0326 6.70781 21.0326 10.0635 21.0326C10.0635 19.9235 10.0635 18.8617 10.0635 17.7526C7.84336 17.7526 5.64785 17.7526 3.42949 17.7526C3.42773 13.0909 3.42773 8.45374 3.42773 3.79202Z" fill="#FF4766"/>
<path fill-rule="evenodd" clip-rule="evenodd" d="M72.3412 21.0081C73.4258 21.0081 74.4875 21.0081 75.5474 21.0081C75.5474 20.8358 75.5474 20.6881 75.5474 20.5387C75.5474 14.8417 75.5474 9.14458 75.5474 3.44575C75.5474 3.2981 75.5474 3.17505 75.572 3.02563C74.4875 3.02563 73.4258 3.02563 72.3412 3.02563C72.3412 9.02153 72.3412 15.0139 72.3412 21.0081Z" fill="#FF4766"/>
<path d="M39.0428 9.11996C39.0428 8.99691 39.0428 8.87387 39.0428 8.72445C37.9828 8.72445 36.9703 8.72445 35.9104 8.72445C35.9104 9.19379 35.9104 9.66137 35.9104 10.1553C35.8365 10.1061 35.8119 10.1061 35.7873 10.0815C34.3319 8.40453 32.4826 8.05824 30.4348 8.55219C27.6469 9.2184 25.7977 11.6354 25.7485 14.5709C25.6746 18.345 28.7086 21.2295 32.4826 20.9588C33.7412 20.8604 34.8258 20.3418 35.6643 19.4049C35.7381 19.3311 35.7381 19.208 35.7873 19.1096C35.8365 19.1588 35.8611 19.1834 35.9104 19.2327C35.9104 19.7266 35.935 20.1942 35.9104 20.6881C35.8611 21.6743 35.4656 22.5127 34.5779 23.0313C32.901 23.9928 30.5578 23.4514 29.4979 21.8729C29.4733 21.8483 29.4486 21.7991 29.3994 21.7498C28.5117 22.2684 27.624 22.7606 26.6871 23.2791C27.2057 24.2161 27.8719 24.9069 28.7842 25.3762C30.6334 26.3623 32.5828 26.51 34.6043 26.0178C36.109 25.6733 37.3412 24.9086 38.2061 23.6008C38.8723 22.5655 39.0938 21.4299 39.0938 20.2223C39.0428 16.5678 39.0428 12.8448 39.0428 9.11996ZM32.3842 18.0479C30.3856 18.0479 28.9318 16.617 28.9318 14.6694C28.9318 12.7217 30.4119 11.3155 32.4088 11.3155C34.4057 11.3155 35.8858 12.7463 35.9104 14.6694C35.9104 16.6416 34.432 18.0479 32.3842 18.0479Z" fill="#FF4766"/>
<path d="M61.2916 9.04614C60.8222 9.31685 60.4285 9.68774 59.9838 10.0569C59.9838 7.98442 59.9838 5.91372 59.9838 3.81665C58.8992 3.81665 57.8621 3.81665 56.8021 3.81665C56.8021 9.56294 56.8021 15.311 56.8021 21.0327C57.8867 21.0327 58.9238 21.0327 59.9838 21.0327C59.9838 20.5879 59.9838 20.145 59.9838 19.7249C60.4531 20.0694 60.8468 20.4649 61.3162 20.7356C63.3886 21.9186 66.1994 21.5249 67.9748 19.8479C70.6379 17.3571 70.8119 12.9907 68.3439 10.303C66.5193 8.3061 63.5099 7.76294 61.2916 9.04614ZM63.4115 18.345C61.3883 18.345 59.9838 16.9141 59.9838 14.8926C59.9838 12.8711 61.39 11.4157 63.4115 11.4157C65.4101 11.4157 66.8638 12.8465 66.8885 14.868C66.8902 16.8895 65.4594 18.345 63.4115 18.345Z" fill="#FF4766"/>
<path d="M17.5112 8.37991C13.8356 8.37991 10.951 11.217 10.9264 14.8662C10.9264 18.5172 13.8127 21.3772 17.4619 21.4018C21.1621 21.4018 24.0713 18.5401 24.0713 14.8908C24.0977 11.2416 21.1867 8.37991 17.5112 8.37991ZM17.6096 18.2711C15.611 18.3203 14.1819 16.9387 14.1326 14.9172C14.0834 12.9942 15.4897 11.5141 17.4373 11.4649C19.3604 11.4157 20.8405 12.8465 20.8897 14.8188C20.9406 16.7418 19.5098 18.2201 17.6096 18.2711Z" fill="#FF4766"/>
<path d="M47.8985 8.37995C44.223 8.35534 41.3138 11.2171 41.3138 14.8663C41.3138 18.5155 44.1755 21.4018 47.8493 21.4018C51.5495 21.4018 54.4587 18.5401 54.4587 14.8909C54.4833 11.2417 51.597 8.37995 47.8985 8.37995ZM47.8739 18.2712C45.9509 18.2712 44.52 16.8403 44.52 14.8926C44.52 12.945 45.9263 11.4895 47.8739 11.4895C49.797 11.4649 51.2771 12.9204 51.2771 14.8926C51.2771 16.8157 49.8462 18.2712 47.8739 18.2712Z" fill="#FF4766"/>
<path fill-rule="evenodd" clip-rule="evenodd" d="M86.9412 8.69987C86.6705 8.69987 86.5967 8.79831 86.5211 9.01979C86.0026 10.6475 85.4612 12.2507 84.918 13.8538C84.5735 14.8645 84.2518 15.8524 83.8826 16.937C83.8088 16.7647 83.7596 16.6663 83.7104 16.5678C82.7242 14.0524 81.7364 11.5124 80.7502 8.99519C80.701 8.87214 80.578 8.69987 80.4795 8.69987C79.3949 8.67526 78.284 8.67526 77.1256 8.67526C77.1994 8.84753 77.2487 8.97057 77.2979 9.09538C78.901 12.8202 80.4795 16.5432 82.0826 20.268C82.1319 20.3911 82.2057 20.5634 82.1811 20.6882C81.7873 21.7973 81.1457 22.6868 79.8625 22.8837C79.5672 22.9329 79.2948 22.9575 78.9748 22.9821C78.9748 23.9682 78.9748 24.9051 78.9748 25.9176C80.5041 25.9915 81.9104 25.6962 83.0934 24.7346C84.2026 23.8469 84.8934 22.6622 85.3627 21.3807C86.9166 17.2376 88.4213 13.0944 89.9506 8.92487C89.9752 8.85104 89.9752 8.77722 89.9998 8.67878C88.9891 8.69987 87.952 8.72448 86.9412 8.69987Z" fill="#FF4766"/>
<path d="M46.3446 25.3499L49.4031 26.4836C46.7893 33.3655 40.1043 38.0272 32.558 38.0272C24.9362 38.0272 18.2283 33.2917 15.6637 26.336L18.7223 25.2268C20.8194 30.9239 26.3196 34.7963 32.5598 34.7963C38.7473 34.8209 44.1983 30.9977 46.3446 25.3499Z" fill="#2877D4"/>
<path d="M12.5787 5.46899L10.1617 3.19966C14.108 -1.06655 20.5205 -1.06655 24.4668 3.19966L22.0498 5.46899C19.4114 2.60903 15.1926 2.60903 12.5787 5.46899Z" fill="#2877D4"/>
<path d="M43.0137 5.46899L40.5967 3.19966C44.543 -1.06655 50.9555 -1.06655 54.9018 3.19966L52.4848 5.46899C49.8463 2.60903 45.6539 2.60903 43.0137 5.46899Z" fill="#2877D4"/>
</svg>
